<mxfile host="app.diagrams.net" modified="2022-05-30T05:09:40.121Z" agent="5.0 (X11; Linux x86_64) AppleWebKit/537.36 (KHTML, like Gecko) Chrome/102.0.5005.61 Safari/537.36" etag="GjNHMD5GE0_svKFWuaYR" version="18.1.3" type="github" pages="3">
  <diagram id="kHL0ZJW6jmxa_d2j9imH" name="Host to host">
    <mxGraphModel dx="1129" dy="644" grid="1" gridSize="10" guides="1" tooltips="1" connect="1" arrows="1" fold="1" page="1" pageScale="1" pageWidth="850" pageHeight="1100" math="0" shadow="0">
      <root>
        <mxCell id="0" />
        <mxCell id="1" parent="0" />
        <mxCell id="O-k6CLtJrN7HofHWBtSs-1" value="h2h" style="rounded=0;whiteSpace=wrap;html=1;" parent="1" vertex="1">
          <mxGeometry x="370" y="250" width="110" height="290" as="geometry" />
        </mxCell>
        <mxCell id="O-k6CLtJrN7HofHWBtSs-2" value="gateway-async" style="rounded=0;whiteSpace=wrap;html=1;fontSize=10;" parent="1" vertex="1">
          <mxGeometry x="560" y="270" width="70" height="30" as="geometry" />
        </mxCell>
        <mxCell id="O-k6CLtJrN7HofHWBtSs-3" value="gateway-sync" style="rounded=0;whiteSpace=wrap;html=1;fontSize=10;" parent="1" vertex="1">
          <mxGeometry x="560" y="330" width="70" height="30" as="geometry" />
        </mxCell>
        <mxCell id="O-k6CLtJrN7HofHWBtSs-11" value="" style="endArrow=classic;startArrow=none;html=1;rounded=0;fontSize=10;exitX=1;exitY=0.5;exitDx=0;exitDy=0;entryX=0;entryY=0.5;entryDx=0;entryDy=0;startFill=0;" parent="1" target="O-k6CLtJrN7HofHWBtSs-3" edge="1">
          <mxGeometry width="50" height="50" relative="1" as="geometry">
            <mxPoint x="480" y="345" as="sourcePoint" />
            <mxPoint x="600" y="320" as="targetPoint" />
          </mxGeometry>
        </mxCell>
        <mxCell id="O-k6CLtJrN7HofHWBtSs-15" value="kafka" style="strokeWidth=2;html=1;shape=mxgraph.flowchart.direct_data;whiteSpace=wrap;fontSize=10;" parent="1" vertex="1">
          <mxGeometry x="270" y="180" width="70" height="30" as="geometry" />
        </mxCell>
        <mxCell id="O-k6CLtJrN7HofHWBtSs-17" value="client" style="rounded=0;whiteSpace=wrap;html=1;fontSize=10;" parent="1" vertex="1">
          <mxGeometry x="80" y="340" width="60" height="110" as="geometry" />
        </mxCell>
        <mxCell id="O-k6CLtJrN7HofHWBtSs-21" value="RT" style="edgeStyle=elbowEdgeStyle;elbow=horizontal;endArrow=classic;html=1;rounded=0;fontSize=10;startArrow=classic;startFill=1;" parent="1" edge="1">
          <mxGeometry width="50" height="50" relative="1" as="geometry">
            <mxPoint x="110" y="340" as="sourcePoint" />
            <mxPoint x="370" y="275" as="targetPoint" />
            <Array as="points">
              <mxPoint x="110" y="340" />
              <mxPoint x="110" y="280" />
            </Array>
          </mxGeometry>
        </mxCell>
        <mxCell id="O-k6CLtJrN7HofHWBtSs-25" value="NRT" style="edgeStyle=elbowEdgeStyle;elbow=horizontal;endArrow=classic;html=1;rounded=0;fontSize=10;exitX=0.75;exitY=0;exitDx=0;exitDy=0;" parent="1" source="O-k6CLtJrN7HofHWBtSs-17" edge="1">
          <mxGeometry width="50" height="50" relative="1" as="geometry">
            <mxPoint x="125.00000000000011" y="326" as="sourcePoint" />
            <mxPoint x="370" y="301" as="targetPoint" />
            <Array as="points">
              <mxPoint x="125" y="296" />
            </Array>
          </mxGeometry>
        </mxCell>
        <mxCell id="O-k6CLtJrN7HofHWBtSs-27" value="BATCH" style="edgeStyle=elbowEdgeStyle;elbow=horizontal;endArrow=classic;html=1;rounded=0;fontSize=10;exitX=1.017;exitY=0.11;exitDx=0;exitDy=0;exitPerimeter=0;" parent="1" source="O-k6CLtJrN7HofHWBtSs-17" edge="1">
          <mxGeometry width="50" height="50" relative="1" as="geometry">
            <mxPoint x="139.2199999999999" y="319.07000000000005" as="sourcePoint" />
            <mxPoint x="370" y="319" as="targetPoint" />
            <Array as="points">
              <mxPoint x="160" y="320" />
              <mxPoint x="160" y="304" />
              <mxPoint x="210" y="324" />
            </Array>
          </mxGeometry>
        </mxCell>
        <mxCell id="O-k6CLtJrN7HofHWBtSs-29" value="ACH" style="edgeStyle=elbowEdgeStyle;elbow=horizontal;endArrow=classic;html=1;rounded=0;fontSize=10;exitX=1;exitY=0.25;exitDx=0;exitDy=0;" parent="1" source="O-k6CLtJrN7HofHWBtSs-17" target="O-k6CLtJrN7HofHWBtSs-1" edge="1">
          <mxGeometry width="50" height="50" relative="1" as="geometry">
            <mxPoint x="270" y="395" as="sourcePoint" />
            <mxPoint x="370" y="395" as="targetPoint" />
            <Array as="points">
              <mxPoint x="190" y="340" />
              <mxPoint x="260" y="340" />
              <mxPoint x="210" y="370" />
            </Array>
          </mxGeometry>
        </mxCell>
        <mxCell id="O-k6CLtJrN7HofHWBtSs-33" value="HB" style="edgeStyle=elbowEdgeStyle;elbow=horizontal;endArrow=classic;html=1;rounded=0;fontSize=10;exitX=1;exitY=0.5;exitDx=0;exitDy=0;entryX=0;entryY=0.379;entryDx=0;entryDy=0;entryPerimeter=0;" parent="1" source="O-k6CLtJrN7HofHWBtSs-17" target="O-k6CLtJrN7HofHWBtSs-1" edge="1">
          <mxGeometry width="50" height="50" relative="1" as="geometry">
            <mxPoint x="270" y="435" as="sourcePoint" />
            <mxPoint x="370" y="435" as="targetPoint" />
            <Array as="points">
              <mxPoint x="220" y="360" />
              <mxPoint x="200" y="410" />
            </Array>
          </mxGeometry>
        </mxCell>
        <mxCell id="O-k6CLtJrN7HofHWBtSs-35" value="TCC" style="edgeStyle=elbowEdgeStyle;elbow=horizontal;endArrow=classic;html=1;rounded=0;fontSize=10;exitX=1;exitY=0.75;exitDx=0;exitDy=0;entryX=-0.009;entryY=0.473;entryDx=0;entryDy=0;entryPerimeter=0;" parent="1" source="O-k6CLtJrN7HofHWBtSs-17" target="O-k6CLtJrN7HofHWBtSs-1" edge="1">
          <mxGeometry x="0.3265" width="50" height="50" relative="1" as="geometry">
            <mxPoint x="120" y="460" as="sourcePoint" />
            <mxPoint x="370" y="475" as="targetPoint" />
            <Array as="points">
              <mxPoint x="230" y="410" />
            </Array>
            <mxPoint as="offset" />
          </mxGeometry>
        </mxCell>
        <mxCell id="O-k6CLtJrN7HofHWBtSs-37" value="WT" style="edgeStyle=elbowEdgeStyle;elbow=horizontal;endArrow=classic;html=1;rounded=0;fontSize=10;exitX=1;exitY=0.869;exitDx=0;exitDy=0;exitPerimeter=0;" parent="1" source="O-k6CLtJrN7HofHWBtSs-17" edge="1">
          <mxGeometry x="0.4171" width="50" height="50" relative="1" as="geometry">
            <mxPoint x="270" y="419.9999999999999" as="sourcePoint" />
            <mxPoint x="370" y="420" as="targetPoint" />
            <mxPoint as="offset" />
          </mxGeometry>
        </mxCell>
        <mxCell id="O-k6CLtJrN7HofHWBtSs-38" value="" style="curved=1;endArrow=classic;html=1;rounded=0;dashed=1;fontSize=10;exitX=0.25;exitY=0;exitDx=0;exitDy=0;entryX=1;entryY=0.5;entryDx=0;entryDy=0;entryPerimeter=0;" parent="1" source="O-k6CLtJrN7HofHWBtSs-1" target="O-k6CLtJrN7HofHWBtSs-15" edge="1">
          <mxGeometry width="50" height="50" relative="1" as="geometry">
            <mxPoint x="380" y="240" as="sourcePoint" />
            <mxPoint x="430" y="190" as="targetPoint" />
            <Array as="points">
              <mxPoint x="430" y="240" />
              <mxPoint x="380" y="190" />
            </Array>
          </mxGeometry>
        </mxCell>
        <mxCell id="O-k6CLtJrN7HofHWBtSs-39" value="" style="endArrow=none;startArrow=classic;html=1;rounded=0;fontSize=5;curved=1;entryX=0;entryY=0.5;entryDx=0;entryDy=0;exitX=1.003;exitY=0.121;exitDx=0;exitDy=0;exitPerimeter=0;endFill=0;" parent="1" source="O-k6CLtJrN7HofHWBtSs-1" target="O-k6CLtJrN7HofHWBtSs-2" edge="1">
          <mxGeometry width="50" height="50" relative="1" as="geometry">
            <mxPoint x="410" y="370" as="sourcePoint" />
            <mxPoint x="460" y="320" as="targetPoint" />
          </mxGeometry>
        </mxCell>
        <mxCell id="O-k6CLtJrN7HofHWBtSs-40" value="isocias" style="rounded=0;whiteSpace=wrap;html=1;fontSize=10;" parent="1" vertex="1">
          <mxGeometry x="560" y="410" width="70" height="120" as="geometry" />
        </mxCell>
        <mxCell id="O-k6CLtJrN7HofHWBtSs-42" value="TCB" style="rounded=0;whiteSpace=wrap;html=1;fontSize=10;strokeWidth=1;" parent="1" vertex="1">
          <mxGeometry x="690" y="250" width="70" height="120" as="geometry" />
        </mxCell>
        <mxCell id="O-k6CLtJrN7HofHWBtSs-44" value="" style="endArrow=classic;startArrow=classic;html=1;rounded=0;fontSize=10;curved=1;exitX=1.002;exitY=0.728;exitDx=0;exitDy=0;exitPerimeter=0;" parent="1" source="O-k6CLtJrN7HofHWBtSs-1" edge="1">
          <mxGeometry width="50" height="50" relative="1" as="geometry">
            <mxPoint x="481.43000000000006" y="459.81999999999994" as="sourcePoint" />
            <mxPoint x="560" y="461" as="targetPoint" />
          </mxGeometry>
        </mxCell>
        <mxCell id="O-k6CLtJrN7HofHWBtSs-45" value="CTG" style="rounded=0;whiteSpace=wrap;html=1;fontSize=10;strokeWidth=1;" parent="1" vertex="1">
          <mxGeometry x="690" y="420" width="70" height="40" as="geometry" />
        </mxCell>
        <mxCell id="O-k6CLtJrN7HofHWBtSs-46" value="BIDV" style="rounded=0;whiteSpace=wrap;html=1;fontSize=10;strokeWidth=1;" parent="1" vertex="1">
          <mxGeometry x="690" y="480" width="70" height="40" as="geometry" />
        </mxCell>
        <mxCell id="O-k6CLtJrN7HofHWBtSs-52" value="" style="endArrow=classic;startArrow=classic;html=1;rounded=0;fontSize=10;curved=1;entryX=0;entryY=0.5;entryDx=0;entryDy=0;exitX=1;exitY=0.25;exitDx=0;exitDy=0;" parent="1" source="O-k6CLtJrN7HofHWBtSs-40" target="O-k6CLtJrN7HofHWBtSs-45" edge="1">
          <mxGeometry width="50" height="50" relative="1" as="geometry">
            <mxPoint x="630" y="470" as="sourcePoint" />
            <mxPoint x="680" y="420" as="targetPoint" />
          </mxGeometry>
        </mxCell>
        <mxCell id="O-k6CLtJrN7HofHWBtSs-53" value="" style="endArrow=classic;startArrow=classic;html=1;rounded=0;fontSize=10;curved=1;entryX=0;entryY=0.5;entryDx=0;entryDy=0;exitX=1;exitY=0.75;exitDx=0;exitDy=0;" parent="1" source="O-k6CLtJrN7HofHWBtSs-40" target="O-k6CLtJrN7HofHWBtSs-46" edge="1">
          <mxGeometry width="50" height="50" relative="1" as="geometry">
            <mxPoint x="630" y="500" as="sourcePoint" />
            <mxPoint x="700" y="440" as="targetPoint" />
          </mxGeometry>
        </mxCell>
        <mxCell id="O-k6CLtJrN7HofHWBtSs-55" value="" style="endArrow=classic;startArrow=classic;html=1;rounded=0;fontSize=10;exitX=1;exitY=0.5;exitDx=0;exitDy=0;entryX=-0.006;entryY=0.295;entryDx=0;entryDy=0;entryPerimeter=0;" parent="1" source="O-k6CLtJrN7HofHWBtSs-2" target="O-k6CLtJrN7HofHWBtSs-42" edge="1">
          <mxGeometry width="50" height="50" relative="1" as="geometry">
            <mxPoint x="490" y="355" as="sourcePoint" />
            <mxPoint x="570" y="355" as="targetPoint" />
          </mxGeometry>
        </mxCell>
        <mxCell id="O-k6CLtJrN7HofHWBtSs-57" value="" style="endArrow=classic;startArrow=none;html=1;rounded=0;fontSize=10;exitX=1;exitY=0.5;exitDx=0;exitDy=0;entryX=-0.004;entryY=0.794;entryDx=0;entryDy=0;entryPerimeter=0;startFill=0;" parent="1" target="O-k6CLtJrN7HofHWBtSs-42" edge="1">
          <mxGeometry width="50" height="50" relative="1" as="geometry">
            <mxPoint x="630.28" y="345.58" as="sourcePoint" />
            <mxPoint x="690" y="344.42" as="targetPoint" />
          </mxGeometry>
        </mxCell>
        <mxCell id="O-k6CLtJrN7HofHWBtSs-60" value="" style="curved=1;endArrow=none;html=1;rounded=0;dashed=1;fontSize=10;exitX=0;exitY=0.5;exitDx=0;exitDy=0;entryX=0;entryY=0.5;entryDx=0;entryDy=0;entryPerimeter=0;startArrow=classic;startFill=1;endFill=0;" parent="1" source="O-k6CLtJrN7HofHWBtSs-17" target="O-k6CLtJrN7HofHWBtSs-15" edge="1">
          <mxGeometry width="50" height="50" relative="1" as="geometry">
            <mxPoint x="135" y="240" as="sourcePoint" />
            <mxPoint x="50" y="185" as="targetPoint" />
            <Array as="points">
              <mxPoint x="30" y="250" />
              <mxPoint x="140" y="230" />
              <mxPoint x="90" y="180" />
            </Array>
          </mxGeometry>
        </mxCell>
        <mxCell id="O-k6CLtJrN7HofHWBtSs-61" value="CTG" style="endArrow=classic;html=1;rounded=0;fontSize=10;entryX=0;entryY=0.724;entryDx=0;entryDy=0;entryPerimeter=0;exitX=0.75;exitY=1;exitDx=0;exitDy=0;edgeStyle=orthogonalEdgeStyle;" parent="1" source="O-k6CLtJrN7HofHWBtSs-17" target="O-k6CLtJrN7HofHWBtSs-1" edge="1">
          <mxGeometry width="50" height="50" relative="1" as="geometry">
            <mxPoint x="320" y="400" as="sourcePoint" />
            <mxPoint x="370" y="350" as="targetPoint" />
          </mxGeometry>
        </mxCell>
        <mxCell id="O-k6CLtJrN7HofHWBtSs-64" value="BIDV" style="endArrow=classic;html=1;rounded=0;fontSize=10;entryX=-0.01;entryY=0.826;entryDx=0;entryDy=0;entryPerimeter=0;exitX=0.5;exitY=1;exitDx=0;exitDy=0;edgeStyle=orthogonalEdgeStyle;" parent="1" source="O-k6CLtJrN7HofHWBtSs-17" target="O-k6CLtJrN7HofHWBtSs-1" edge="1">
          <mxGeometry width="50" height="50" relative="1" as="geometry">
            <mxPoint x="320" y="440" as="sourcePoint" />
            <mxPoint x="370" y="390" as="targetPoint" />
            <Array as="points">
              <mxPoint x="110" y="490" />
              <mxPoint x="220" y="490" />
            </Array>
          </mxGeometry>
        </mxCell>
        <mxCell id="rAUy-r8fFHXEAjBvW2jp-1" value="kafka" style="strokeWidth=2;html=1;shape=mxgraph.flowchart.direct_data;whiteSpace=wrap;fontSize=10;" parent="1" vertex="1">
          <mxGeometry x="500" y="570" width="70" height="30" as="geometry" />
        </mxCell>
        <mxCell id="rAUy-r8fFHXEAjBvW2jp-2" value="kafka" style="strokeWidth=2;html=1;shape=mxgraph.flowchart.direct_data;whiteSpace=wrap;fontSize=10;" parent="1" vertex="1">
          <mxGeometry x="500" y="200" width="70" height="30" as="geometry" />
        </mxCell>
        <mxCell id="rAUy-r8fFHXEAjBvW2jp-4" value="" style="endArrow=classic;html=1;rounded=0;fontSize=10;entryX=0;entryY=0.5;entryDx=0;entryDy=0;entryPerimeter=0;exitX=0.717;exitY=-0.004;exitDx=0;exitDy=0;exitPerimeter=0;edgeStyle=orthogonalEdgeStyle;curved=1;dashed=1;startArrow=classic;startFill=1;" parent="1" source="O-k6CLtJrN7HofHWBtSs-1" target="rAUy-r8fFHXEAjBvW2jp-2" edge="1">
          <mxGeometry width="50" height="50" relative="1" as="geometry">
            <mxPoint x="425" y="250" as="sourcePoint" />
            <mxPoint x="475" y="200" as="targetPoint" />
            <Array as="points">
              <mxPoint x="449" y="230" />
              <mxPoint x="440" y="230" />
              <mxPoint x="440" y="200" />
              <mxPoint x="480" y="200" />
              <mxPoint x="480" y="215" />
            </Array>
          </mxGeometry>
        </mxCell>
        <mxCell id="rAUy-r8fFHXEAjBvW2jp-5" value="" style="endArrow=classic;startArrow=classic;html=1;rounded=0;dashed=1;fontSize=10;curved=1;exitX=0.5;exitY=0;exitDx=0;exitDy=0;entryX=1;entryY=0.5;entryDx=0;entryDy=0;entryPerimeter=0;edgeStyle=orthogonalEdgeStyle;" parent="1" source="O-k6CLtJrN7HofHWBtSs-2" target="rAUy-r8fFHXEAjBvW2jp-2" edge="1">
          <mxGeometry width="50" height="50" relative="1" as="geometry">
            <mxPoint x="590" y="260" as="sourcePoint" />
            <mxPoint x="640" y="210" as="targetPoint" />
            <Array as="points">
              <mxPoint x="610" y="270" />
              <mxPoint x="610" y="215" />
            </Array>
          </mxGeometry>
        </mxCell>
        <mxCell id="rAUy-r8fFHXEAjBvW2jp-6" value="" style="endArrow=classic;html=1;rounded=0;dashed=1;fontSize=10;curved=1;exitX=1;exitY=0.5;exitDx=0;exitDy=0;exitPerimeter=0;entryX=0.5;entryY=1;entryDx=0;entryDy=0;edgeStyle=orthogonalEdgeStyle;startArrow=classic;startFill=1;" parent="1" source="rAUy-r8fFHXEAjBvW2jp-1" target="O-k6CLtJrN7HofHWBtSs-40" edge="1">
          <mxGeometry width="50" height="50" relative="1" as="geometry">
            <mxPoint x="580" y="590" as="sourcePoint" />
            <mxPoint x="630" y="540" as="targetPoint" />
          </mxGeometry>
        </mxCell>
        <mxCell id="rAUy-r8fFHXEAjBvW2jp-7" value="" style="endArrow=classic;html=1;rounded=0;dashed=1;fontSize=10;curved=1;entryX=0.75;entryY=1;entryDx=0;entryDy=0;exitX=0;exitY=0.5;exitDx=0;exitDy=0;exitPerimeter=0;edgeStyle=orthogonalEdgeStyle;endFill=1;startArrow=classic;startFill=1;" parent="1" source="rAUy-r8fFHXEAjBvW2jp-1" target="O-k6CLtJrN7HofHWBtSs-1" edge="1">
          <mxGeometry width="50" height="50" relative="1" as="geometry">
            <mxPoint x="430" y="600" as="sourcePoint" />
            <mxPoint x="480" y="550" as="targetPoint" />
          </mxGeometry>
        </mxCell>
      </root>
    </mxGraphModel>
  </diagram>
  <diagram id="DoZvR778nxZiScwBbV48" name="Cash service">
    <mxGraphModel dx="934" dy="533" grid="1" gridSize="10" guides="1" tooltips="1" connect="1" arrows="1" fold="1" page="1" pageScale="1" pageWidth="850" pageHeight="1100" math="0" shadow="0">
      <root>
        <mxCell id="0" />
        <mxCell id="1" parent="0" />
        <mxCell id="KA-C9ESFZq8NU6Ykv-MI-1" value="cashservice" style="rounded=0;whiteSpace=wrap;html=1;" parent="1" vertex="1">
          <mxGeometry x="320" y="260" width="100" height="270" as="geometry" />
        </mxCell>
        <mxCell id="KA-C9ESFZq8NU6Ykv-MI-2" value="silkgate" style="rounded=0;whiteSpace=wrap;html=1;" parent="1" vertex="1">
          <mxGeometry x="540" y="260" width="80" height="70" as="geometry" />
        </mxCell>
        <mxCell id="KA-C9ESFZq8NU6Ykv-MI-3" value="isocias" style="rounded=0;whiteSpace=wrap;html=1;" parent="1" vertex="1">
          <mxGeometry x="540" y="440" width="80" height="70" as="geometry" />
        </mxCell>
        <mxCell id="KA-C9ESFZq8NU6Ykv-MI-4" value="h2h" style="rounded=0;whiteSpace=wrap;html=1;" parent="1" vertex="1">
          <mxGeometry x="540" y="350" width="80" height="70" as="geometry" />
        </mxCell>
        <mxCell id="KA-C9ESFZq8NU6Ykv-MI-5" value="client" style="rounded=0;whiteSpace=wrap;html=1;" parent="1" vertex="1">
          <mxGeometry x="60" y="340" width="80" height="70" as="geometry" />
        </mxCell>
        <mxCell id="KA-C9ESFZq8NU6Ykv-MI-6" value="hold" style="endArrow=classic;html=1;rounded=0;edgeStyle=orthogonalEdgeStyle;entryX=-0.006;entryY=0.113;entryDx=0;entryDy=0;entryPerimeter=0;exitX=0.5;exitY=0;exitDx=0;exitDy=0;startArrow=none;startFill=0;endFill=1;" parent="1" source="KA-C9ESFZq8NU6Ykv-MI-5" target="KA-C9ESFZq8NU6Ykv-MI-1" edge="1">
          <mxGeometry width="50" height="50" relative="1" as="geometry">
            <mxPoint x="390" y="450" as="sourcePoint" />
            <mxPoint x="440" y="400" as="targetPoint" />
            <Array as="points">
              <mxPoint x="100" y="291" />
            </Array>
          </mxGeometry>
        </mxCell>
        <mxCell id="KA-C9ESFZq8NU6Ykv-MI-7" value="unhold" style="endArrow=classic;html=1;rounded=0;edgeStyle=orthogonalEdgeStyle;entryX=0;entryY=0.222;entryDx=0;entryDy=0;entryPerimeter=0;exitX=0.75;exitY=0;exitDx=0;exitDy=0;startArrow=none;startFill=0;" parent="1" source="KA-C9ESFZq8NU6Ykv-MI-5" target="KA-C9ESFZq8NU6Ykv-MI-1" edge="1">
          <mxGeometry width="50" height="50" relative="1" as="geometry">
            <mxPoint x="110" y="350" as="sourcePoint" />
            <mxPoint x="329.4000000000001" y="300.51" as="targetPoint" />
            <Array as="points">
              <mxPoint x="120" y="320" />
            </Array>
          </mxGeometry>
        </mxCell>
        <mxCell id="KA-C9ESFZq8NU6Ykv-MI-8" value="cutonhold" style="endArrow=classic;html=1;rounded=0;edgeStyle=orthogonalEdgeStyle;exitX=1;exitY=0.25;exitDx=0;exitDy=0;entryX=-0.006;entryY=0.316;entryDx=0;entryDy=0;entryPerimeter=0;" parent="1" source="KA-C9ESFZq8NU6Ykv-MI-5" target="KA-C9ESFZq8NU6Ykv-MI-1" edge="1">
          <mxGeometry width="50" height="50" relative="1" as="geometry">
            <mxPoint x="320" y="370" as="sourcePoint" />
            <mxPoint x="370" y="320" as="targetPoint" />
            <Array as="points">
              <mxPoint x="190" y="358" />
              <mxPoint x="190" y="345" />
            </Array>
          </mxGeometry>
        </mxCell>
        <mxCell id="KA-C9ESFZq8NU6Ykv-MI-9" value="kafka" style="strokeWidth=2;html=1;shape=mxgraph.flowchart.direct_data;whiteSpace=wrap;" parent="1" vertex="1">
          <mxGeometry x="200" y="180" width="100" height="40" as="geometry" />
        </mxCell>
        <mxCell id="KA-C9ESFZq8NU6Ykv-MI-10" value="" style="endArrow=classic;html=1;rounded=0;entryX=1;entryY=0.5;entryDx=0;entryDy=0;entryPerimeter=0;edgeStyle=orthogonalEdgeStyle;curved=1;exitX=0.55;exitY=-0.001;exitDx=0;exitDy=0;exitPerimeter=0;dashed=1;" parent="1" source="KA-C9ESFZq8NU6Ykv-MI-1" target="KA-C9ESFZq8NU6Ykv-MI-9" edge="1">
          <mxGeometry width="50" height="50" relative="1" as="geometry">
            <mxPoint x="360" y="260" as="sourcePoint" />
            <mxPoint x="410" y="210" as="targetPoint" />
          </mxGeometry>
        </mxCell>
        <mxCell id="KA-C9ESFZq8NU6Ykv-MI-11" value="" style="endArrow=none;html=1;rounded=0;dashed=1;fontSize=6;curved=1;startArrow=classic;startFill=1;endFill=0;entryX=-0.018;entryY=0.612;entryDx=0;entryDy=0;entryPerimeter=0;edgeStyle=orthogonalEdgeStyle;exitX=0;exitY=0.571;exitDx=0;exitDy=0;exitPerimeter=0;" parent="1" source="KA-C9ESFZq8NU6Ykv-MI-5" target="KA-C9ESFZq8NU6Ykv-MI-9" edge="1">
          <mxGeometry width="50" height="50" relative="1" as="geometry">
            <mxPoint x="90" y="260" as="sourcePoint" />
            <mxPoint x="140" y="210" as="targetPoint" />
            <Array as="points">
              <mxPoint x="20" y="380" />
              <mxPoint x="20" y="220" />
              <mxPoint x="198" y="220" />
            </Array>
          </mxGeometry>
        </mxCell>
        <mxCell id="KA-C9ESFZq8NU6Ykv-MI-12" value="&lt;font size=&quot;1&quot;&gt;disburse&lt;/font&gt;" style="endArrow=classic;html=1;rounded=0;fontSize=6;curved=1;exitX=1;exitY=0.75;exitDx=0;exitDy=0;entryX=-0.003;entryY=0.488;entryDx=0;entryDy=0;entryPerimeter=0;" parent="1" source="KA-C9ESFZq8NU6Ykv-MI-5" target="KA-C9ESFZq8NU6Ykv-MI-1" edge="1">
          <mxGeometry width="50" height="50" relative="1" as="geometry">
            <mxPoint x="240" y="400" as="sourcePoint" />
            <mxPoint x="290" y="350" as="targetPoint" />
          </mxGeometry>
        </mxCell>
        <mxCell id="KA-C9ESFZq8NU6Ykv-MI-13" value="derivative" style="rounded=0;whiteSpace=wrap;html=1;" parent="1" vertex="1">
          <mxGeometry x="230" y="610" width="80" height="70" as="geometry" />
        </mxCell>
        <mxCell id="KA-C9ESFZq8NU6Ykv-MI-14" value="capital" style="rounded=0;whiteSpace=wrap;html=1;" parent="1" vertex="1">
          <mxGeometry x="330" y="610" width="80" height="70" as="geometry" />
        </mxCell>
        <mxCell id="KA-C9ESFZq8NU6Ykv-MI-15" value="isave" style="rounded=0;whiteSpace=wrap;html=1;" parent="1" vertex="1">
          <mxGeometry x="425" y="610" width="80" height="70" as="geometry" />
        </mxCell>
        <mxCell id="KA-C9ESFZq8NU6Ykv-MI-16" value="" style="endArrow=none;startArrow=classic;html=1;rounded=0;fontSize=12;edgeStyle=elbowEdgeStyle;entryX=-0.003;entryY=0.962;entryDx=0;entryDy=0;entryPerimeter=0;exitX=0.5;exitY=0;exitDx=0;exitDy=0;endFill=0;" parent="1" source="KA-C9ESFZq8NU6Ykv-MI-13" target="KA-C9ESFZq8NU6Ykv-MI-1" edge="1">
          <mxGeometry width="50" height="50" relative="1" as="geometry">
            <mxPoint x="300" y="560" as="sourcePoint" />
            <mxPoint x="350" y="510" as="targetPoint" />
            <Array as="points">
              <mxPoint x="270" y="580" />
              <mxPoint x="230" y="560" />
            </Array>
          </mxGeometry>
        </mxCell>
        <mxCell id="KA-C9ESFZq8NU6Ykv-MI-17" value="" style="endArrow=classic;startArrow=classic;html=1;rounded=0;fontSize=12;edgeStyle=elbowEdgeStyle;entryX=0.5;entryY=1;entryDx=0;entryDy=0;exitX=0.5;exitY=0;exitDx=0;exitDy=0;startFill=1;endFill=1;" parent="1" source="KA-C9ESFZq8NU6Ykv-MI-14" target="KA-C9ESFZq8NU6Ykv-MI-1" edge="1">
          <mxGeometry width="50" height="50" relative="1" as="geometry">
            <mxPoint x="240" y="620" as="sourcePoint" />
            <mxPoint x="330.20000000000005" y="513.8100000000001" as="targetPoint" />
            <Array as="points">
              <mxPoint x="370" y="570" />
            </Array>
          </mxGeometry>
        </mxCell>
        <mxCell id="KA-C9ESFZq8NU6Ykv-MI-18" value="" style="endArrow=none;startArrow=classic;html=1;rounded=0;fontSize=12;edgeStyle=elbowEdgeStyle;exitX=0.5;exitY=0;exitDx=0;exitDy=0;endFill=0;entryX=0.998;entryY=0.963;entryDx=0;entryDy=0;entryPerimeter=0;" parent="1" source="KA-C9ESFZq8NU6Ykv-MI-15" target="KA-C9ESFZq8NU6Ykv-MI-1" edge="1">
          <mxGeometry width="50" height="50" relative="1" as="geometry">
            <mxPoint x="380" y="620" as="sourcePoint" />
            <mxPoint x="420" y="500" as="targetPoint" />
            <Array as="points">
              <mxPoint x="465" y="560" />
              <mxPoint x="510" y="560" />
            </Array>
          </mxGeometry>
        </mxCell>
        <mxCell id="KA-C9ESFZq8NU6Ykv-MI-19" value="&lt;font style=&quot;font-size: 10px&quot;&gt;transfer&lt;/font&gt;" style="endArrow=classic;html=1;rounded=0;fontSize=12;edgeStyle=elbowEdgeStyle;entryX=-0.006;entryY=0.626;entryDx=0;entryDy=0;exitX=0.75;exitY=1;exitDx=0;exitDy=0;entryPerimeter=0;" parent="1" source="KA-C9ESFZq8NU6Ykv-MI-5" target="KA-C9ESFZq8NU6Ykv-MI-1" edge="1">
          <mxGeometry width="50" height="50" relative="1" as="geometry">
            <mxPoint x="310" y="530" as="sourcePoint" />
            <mxPoint x="360" y="480" as="targetPoint" />
            <Array as="points">
              <mxPoint x="120" y="430" />
              <mxPoint x="200" y="420" />
              <mxPoint x="250" y="460" />
              <mxPoint x="120" y="440" />
            </Array>
          </mxGeometry>
        </mxCell>
        <mxCell id="KA-C9ESFZq8NU6Ykv-MI-20" value="IA" style="endArrow=classic;startArrow=classic;html=1;rounded=0;fontSize=10;entryX=0;entryY=0.25;entryDx=0;entryDy=0;exitX=0.996;exitY=0.104;exitDx=0;exitDy=0;exitPerimeter=0;startFill=1;" parent="1" edge="1">
          <mxGeometry width="50" height="50" relative="1" as="geometry">
            <mxPoint x="419.60000000000014" y="274.08000000000004" as="sourcePoint" />
            <mxPoint x="539.9999999999998" y="273.5" as="targetPoint" />
          </mxGeometry>
        </mxCell>
        <mxCell id="KA-C9ESFZq8NU6Ykv-MI-21" value="repayment" style="endArrow=none;startArrow=classic;html=1;rounded=0;fontSize=10;entryX=0;entryY=0.25;entryDx=0;entryDy=0;exitX=0.996;exitY=0.104;exitDx=0;exitDy=0;exitPerimeter=0;endFill=0;" parent="1" edge="1">
          <mxGeometry width="50" height="50" relative="1" as="geometry">
            <mxPoint x="419.60000000000014" y="320.58000000000004" as="sourcePoint" />
            <mxPoint x="539.9999999999998" y="320" as="targetPoint" />
          </mxGeometry>
        </mxCell>
        <mxCell id="KA-C9ESFZq8NU6Ykv-MI-22" value="IA" style="endArrow=classic;startArrow=classic;html=1;rounded=0;fontSize=10;entryX=0;entryY=0.25;entryDx=0;entryDy=0;exitX=0.996;exitY=0.104;exitDx=0;exitDy=0;exitPerimeter=0;startFill=1;" parent="1" edge="1">
          <mxGeometry width="50" height="50" relative="1" as="geometry">
            <mxPoint x="420" y="451.28999999999996" as="sourcePoint" />
            <mxPoint x="540.4000000000001" y="450.71000000000004" as="targetPoint" />
          </mxGeometry>
        </mxCell>
        <mxCell id="KA-C9ESFZq8NU6Ykv-MI-23" value="repayment" style="endArrow=none;startArrow=classic;html=1;rounded=0;fontSize=10;entryX=0;entryY=0.25;entryDx=0;entryDy=0;exitX=0.996;exitY=0.104;exitDx=0;exitDy=0;exitPerimeter=0;endFill=0;" parent="1" edge="1">
          <mxGeometry width="50" height="50" relative="1" as="geometry">
            <mxPoint x="420" y="490.5799999999999" as="sourcePoint" />
            <mxPoint x="540.4000000000001" y="490" as="targetPoint" />
          </mxGeometry>
        </mxCell>
        <mxCell id="KA-C9ESFZq8NU6Ykv-MI-24" value="disburse" style="endArrow=classic;startArrow=none;html=1;rounded=0;fontSize=10;entryX=0;entryY=0.25;entryDx=0;entryDy=0;exitX=0.996;exitY=0.104;exitDx=0;exitDy=0;exitPerimeter=0;endFill=1;startFill=0;" parent="1" edge="1">
          <mxGeometry width="50" height="50" relative="1" as="geometry">
            <mxPoint x="419.60000000000014" y="295.28999999999996" as="sourcePoint" />
            <mxPoint x="539.9999999999998" y="294.71000000000004" as="targetPoint" />
          </mxGeometry>
        </mxCell>
        <mxCell id="KA-C9ESFZq8NU6Ykv-MI-25" value="disburse" style="endArrow=classic;startArrow=none;html=1;rounded=0;fontSize=10;entryX=0;entryY=0.25;entryDx=0;entryDy=0;exitX=0.996;exitY=0.104;exitDx=0;exitDy=0;exitPerimeter=0;endFill=1;startFill=0;" parent="1" edge="1">
          <mxGeometry width="50" height="50" relative="1" as="geometry">
            <mxPoint x="419.60000000000014" y="470.5799999999999" as="sourcePoint" />
            <mxPoint x="539.9999999999998" y="470" as="targetPoint" />
          </mxGeometry>
        </mxCell>
        <mxCell id="KA-C9ESFZq8NU6Ykv-MI-26" value="disburse" style="endArrow=classic;startArrow=none;html=1;rounded=0;fontSize=10;entryX=0;entryY=0.25;entryDx=0;entryDy=0;exitX=0.996;exitY=0.104;exitDx=0;exitDy=0;exitPerimeter=0;endFill=1;startFill=0;" parent="1" edge="1">
          <mxGeometry width="50" height="50" relative="1" as="geometry">
            <mxPoint x="420" y="384.5799999999998" as="sourcePoint" />
            <mxPoint x="540.4000000000001" y="383.9999999999999" as="targetPoint" />
          </mxGeometry>
        </mxCell>
        <mxCell id="KA-C9ESFZq8NU6Ykv-MI-27" value="complex-biz" style="endArrow=classic;html=1;rounded=0;fontSize=10;entryX=0.016;entryY=0.801;entryDx=0;entryDy=0;entryPerimeter=0;edgeStyle=orthogonalEdgeStyle;exitX=0.5;exitY=1;exitDx=0;exitDy=0;" parent="1" source="KA-C9ESFZq8NU6Ykv-MI-5" target="KA-C9ESFZq8NU6Ykv-MI-1" edge="1">
          <mxGeometry width="50" height="50" relative="1" as="geometry">
            <mxPoint x="120" y="500" as="sourcePoint" />
            <mxPoint x="170" y="450" as="targetPoint" />
          </mxGeometry>
        </mxCell>
        <mxCell id="KA-C9ESFZq8NU6Ykv-MI-28" value="TCB" style="rounded=0;whiteSpace=wrap;html=1;fontSize=10;" parent="1" vertex="1">
          <mxGeometry x="670" y="270" width="120" height="150" as="geometry" />
        </mxCell>
        <mxCell id="KA-C9ESFZq8NU6Ykv-MI-29" value="CTG" style="rounded=0;whiteSpace=wrap;html=1;fontSize=10;" parent="1" vertex="1">
          <mxGeometry x="700" y="430" width="60" height="50" as="geometry" />
        </mxCell>
        <mxCell id="KA-C9ESFZq8NU6Ykv-MI-30" value="" style="endArrow=classic;html=1;rounded=0;fontSize=10;exitX=1;exitY=0.5;exitDx=0;exitDy=0;entryX=-0.003;entryY=0.234;entryDx=0;entryDy=0;entryPerimeter=0;startArrow=classic;startFill=1;" parent="1" source="KA-C9ESFZq8NU6Ykv-MI-2" edge="1">
          <mxGeometry width="50" height="50" relative="1" as="geometry">
            <mxPoint x="620" y="360" as="sourcePoint" />
            <mxPoint x="669.6399999999999" y="295.0999999999999" as="targetPoint" />
          </mxGeometry>
        </mxCell>
        <mxCell id="KA-C9ESFZq8NU6Ykv-MI-31" value="" style="endArrow=classic;html=1;rounded=0;fontSize=10;exitX=1;exitY=0.5;exitDx=0;exitDy=0;entryX=-0.003;entryY=0.234;entryDx=0;entryDy=0;entryPerimeter=0;startArrow=classic;startFill=1;" parent="1" edge="1">
          <mxGeometry width="50" height="50" relative="1" as="geometry">
            <mxPoint x="620.3600000000001" y="384.9" as="sourcePoint" />
            <mxPoint x="669.9999999999998" y="385" as="targetPoint" />
          </mxGeometry>
        </mxCell>
        <mxCell id="KA-C9ESFZq8NU6Ykv-MI-32" value="BIDV" style="rounded=0;whiteSpace=wrap;html=1;fontSize=10;" parent="1" vertex="1">
          <mxGeometry x="700" y="490" width="60" height="50" as="geometry" />
        </mxCell>
        <mxCell id="KA-C9ESFZq8NU6Ykv-MI-33" value="" style="endArrow=classic;startArrow=classic;html=1;rounded=0;fontSize=10;entryX=0.001;entryY=0.547;entryDx=0;entryDy=0;exitX=1;exitY=0.25;exitDx=0;exitDy=0;entryPerimeter=0;edgeStyle=elbowEdgeStyle;" parent="1" source="KA-C9ESFZq8NU6Ykv-MI-3" target="KA-C9ESFZq8NU6Ykv-MI-29" edge="1">
          <mxGeometry width="50" height="50" relative="1" as="geometry">
            <mxPoint x="620" y="490" as="sourcePoint" />
            <mxPoint x="670" y="440" as="targetPoint" />
          </mxGeometry>
        </mxCell>
        <mxCell id="KA-C9ESFZq8NU6Ykv-MI-34" value="" style="endArrow=classic;startArrow=classic;html=1;rounded=0;fontSize=10;entryX=0;entryY=0.5;entryDx=0;entryDy=0;exitX=1;exitY=0.75;exitDx=0;exitDy=0;edgeStyle=elbowEdgeStyle;" parent="1" source="KA-C9ESFZq8NU6Ykv-MI-3" target="KA-C9ESFZq8NU6Ykv-MI-32" edge="1">
          <mxGeometry width="50" height="50" relative="1" as="geometry">
            <mxPoint x="629.9999999999999" y="467.5" as="sourcePoint" />
            <mxPoint x="710.06" y="467.35" as="targetPoint" />
          </mxGeometry>
        </mxCell>
      </root>
    </mxGraphModel>
  </diagram>
  <diagram id="rKEUA2ucjsO5gI_DakWE" name="iSocias">
    <mxGraphModel dx="1355" dy="773" grid="1" gridSize="10" guides="1" tooltips="1" connect="1" arrows="1" fold="1" page="1" pageScale="1" pageWidth="850" pageHeight="1100" math="0" shadow="0">
      <root>
        <mxCell id="0" />
        <mxCell id="1" parent="0" />
        <mxCell id="uc43m-GeVk4H-U6-KM-l-1" value="isocias" style="rounded=0;whiteSpace=wrap;html=1;fontSize=10;strokeWidth=1;" parent="1" vertex="1">
          <mxGeometry x="230" y="280" width="120" height="210" as="geometry" />
        </mxCell>
        <mxCell id="uc43m-GeVk4H-U6-KM-l-2" value="openapi" style="ellipse;shape=cloud;whiteSpace=wrap;html=1;fontSize=10;strokeWidth=1;" parent="1" vertex="1">
          <mxGeometry x="410" y="160" width="120" height="80" as="geometry" />
        </mxCell>
        <mxCell id="uc43m-GeVk4H-U6-KM-l-3" value="" style="endArrow=none;html=1;rounded=0;fontSize=10;curved=1;exitX=0.5;exitY=0;exitDx=0;exitDy=0;entryX=0.13;entryY=0.77;entryDx=0;entryDy=0;entryPerimeter=0;edgeStyle=orthogonalEdgeStyle;startArrow=classic;startFill=1;endFill=0;" parent="1" source="uc43m-GeVk4H-U6-KM-l-1" target="uc43m-GeVk4H-U6-KM-l-2" edge="1">
          <mxGeometry width="50" height="50" relative="1" as="geometry">
            <mxPoint x="330" y="290" as="sourcePoint" />
            <mxPoint x="380" y="240" as="targetPoint" />
          </mxGeometry>
        </mxCell>
        <mxCell id="uc43m-GeVk4H-U6-KM-l-4" value="CTG" style="rounded=0;whiteSpace=wrap;html=1;fontSize=10;strokeWidth=1;" parent="1" vertex="1">
          <mxGeometry x="440" y="280" width="80" height="60" as="geometry" />
        </mxCell>
        <mxCell id="uc43m-GeVk4H-U6-KM-l-39" value="BIDV" style="rounded=0;whiteSpace=wrap;html=1;fontSize=10;strokeWidth=1;" parent="1" vertex="1">
          <mxGeometry x="440" y="360" width="80" height="60" as="geometry" />
        </mxCell>
        <mxCell id="uc43m-GeVk4H-U6-KM-l-40" value="VTP" style="rounded=0;whiteSpace=wrap;html=1;fontSize=10;strokeWidth=1;" parent="1" vertex="1">
          <mxGeometry x="440" y="440" width="80" height="60" as="geometry" />
        </mxCell>
        <mxCell id="uc43m-GeVk4H-U6-KM-l-41" value="" style="endArrow=classic;html=1;rounded=0;fontSize=10;curved=1;exitX=0.997;exitY=0.144;exitDx=0;exitDy=0;entryX=0;entryY=0.5;entryDx=0;entryDy=0;exitPerimeter=0;startArrow=classic;startFill=1;" parent="1" source="uc43m-GeVk4H-U6-KM-l-1" target="uc43m-GeVk4H-U6-KM-l-4" edge="1">
          <mxGeometry width="50" height="50" relative="1" as="geometry">
            <mxPoint x="400" y="390" as="sourcePoint" />
            <mxPoint x="450" y="340" as="targetPoint" />
          </mxGeometry>
        </mxCell>
        <mxCell id="uc43m-GeVk4H-U6-KM-l-43" value="" style="endArrow=classic;html=1;rounded=0;fontSize=10;curved=1;exitX=1.004;exitY=0.178;exitDx=0;exitDy=0;entryX=0;entryY=0.5;entryDx=0;entryDy=0;exitPerimeter=0;startArrow=classic;startFill=1;" parent="1" edge="1">
          <mxGeometry width="50" height="50" relative="1" as="geometry">
            <mxPoint x="350.48" y="390.12" as="sourcePoint" />
            <mxPoint x="440" y="389.86" as="targetPoint" />
          </mxGeometry>
        </mxCell>
        <mxCell id="uc43m-GeVk4H-U6-KM-l-44" value="" style="endArrow=classic;html=1;rounded=0;fontSize=10;curved=1;exitX=1.004;exitY=0.178;exitDx=0;exitDy=0;entryX=0;entryY=0.5;entryDx=0;entryDy=0;exitPerimeter=0;startArrow=classic;startFill=1;" parent="1" edge="1">
          <mxGeometry width="50" height="50" relative="1" as="geometry">
            <mxPoint x="350.48" y="470.12" as="sourcePoint" />
            <mxPoint x="440" y="469.86" as="targetPoint" />
          </mxGeometry>
        </mxCell>
        <mxCell id="uc43m-GeVk4H-U6-KM-l-47" value="cashservice" style="rounded=0;whiteSpace=wrap;html=1;fontSize=10;strokeWidth=1;" parent="1" vertex="1">
          <mxGeometry x="70" y="280" width="60" height="40" as="geometry" />
        </mxCell>
        <mxCell id="uc43m-GeVk4H-U6-KM-l-49" value="" style="endArrow=classic;startArrow=classic;html=1;rounded=0;fontSize=10;curved=1;exitX=1;exitY=0.5;exitDx=0;exitDy=0;entryX=-0.006;entryY=0.096;entryDx=0;entryDy=0;entryPerimeter=0;" parent="1" source="uc43m-GeVk4H-U6-KM-l-47" target="uc43m-GeVk4H-U6-KM-l-1" edge="1">
          <mxGeometry width="50" height="50" relative="1" as="geometry">
            <mxPoint x="190" y="410" as="sourcePoint" />
            <mxPoint x="240" y="360" as="targetPoint" />
          </mxGeometry>
        </mxCell>
        <mxCell id="Y-OeBZ39o0OpCCZOIt0w-1" value="capital" style="rounded=0;whiteSpace=wrap;html=1;fontSize=10;strokeWidth=1;" parent="1" vertex="1">
          <mxGeometry x="70" y="330" width="60" height="40" as="geometry" />
        </mxCell>
        <mxCell id="Y-OeBZ39o0OpCCZOIt0w-2" value="" style="endArrow=none;startArrow=classic;html=1;rounded=0;fontSize=10;curved=1;exitX=1;exitY=0.5;exitDx=0;exitDy=0;entryX=-0.006;entryY=0.096;entryDx=0;entryDy=0;entryPerimeter=0;endFill=0;" parent="1" source="Y-OeBZ39o0OpCCZOIt0w-1" edge="1">
          <mxGeometry width="50" height="50" relative="1" as="geometry">
            <mxPoint x="190" y="460" as="sourcePoint" />
            <mxPoint x="229.27999999999997" y="350.15999999999997" as="targetPoint" />
          </mxGeometry>
        </mxCell>
        <mxCell id="Y-OeBZ39o0OpCCZOIt0w-3" value="derivative" style="rounded=0;whiteSpace=wrap;html=1;fontSize=10;strokeWidth=1;" parent="1" vertex="1">
          <mxGeometry x="70" y="380" width="60" height="40" as="geometry" />
        </mxCell>
        <mxCell id="Y-OeBZ39o0OpCCZOIt0w-4" value="" style="endArrow=none;startArrow=classic;html=1;rounded=0;fontSize=10;curved=1;exitX=1;exitY=0.5;exitDx=0;exitDy=0;entryX=-0.006;entryY=0.096;entryDx=0;entryDy=0;entryPerimeter=0;endFill=0;" parent="1" source="Y-OeBZ39o0OpCCZOIt0w-3" edge="1">
          <mxGeometry width="50" height="50" relative="1" as="geometry">
            <mxPoint x="190" y="510" as="sourcePoint" />
            <mxPoint x="229.27999999999997" y="400.15999999999997" as="targetPoint" />
          </mxGeometry>
        </mxCell>
        <mxCell id="Y-OeBZ39o0OpCCZOIt0w-5" value="bond" style="rounded=0;whiteSpace=wrap;html=1;fontSize=10;strokeWidth=1;" parent="1" vertex="1">
          <mxGeometry x="70.72" y="430" width="60" height="40" as="geometry" />
        </mxCell>
        <mxCell id="Y-OeBZ39o0OpCCZOIt0w-6" value="" style="endArrow=none;startArrow=classic;html=1;rounded=0;fontSize=10;curved=1;exitX=1;exitY=0.5;exitDx=0;exitDy=0;entryX=-0.006;entryY=0.096;entryDx=0;entryDy=0;entryPerimeter=0;endFill=0;" parent="1" source="Y-OeBZ39o0OpCCZOIt0w-5" edge="1">
          <mxGeometry width="50" height="50" relative="1" as="geometry">
            <mxPoint x="190.72" y="560" as="sourcePoint" />
            <mxPoint x="229.99999999999997" y="450.15999999999997" as="targetPoint" />
          </mxGeometry>
        </mxCell>
        <mxCell id="Y-OeBZ39o0OpCCZOIt0w-7" value="fund" style="rounded=0;whiteSpace=wrap;html=1;fontSize=10;strokeWidth=1;" parent="1" vertex="1">
          <mxGeometry x="70.72" y="480" width="60" height="40" as="geometry" />
        </mxCell>
        <mxCell id="Y-OeBZ39o0OpCCZOIt0w-8" value="" style="endArrow=none;startArrow=classic;html=1;rounded=0;fontSize=10;exitX=1;exitY=0.5;exitDx=0;exitDy=0;entryX=0;entryY=0.952;entryDx=0;entryDy=0;entryPerimeter=0;edgeStyle=orthogonalEdgeStyle;endFill=0;" parent="1" source="Y-OeBZ39o0OpCCZOIt0w-7" target="uc43m-GeVk4H-U6-KM-l-1" edge="1">
          <mxGeometry width="50" height="50" relative="1" as="geometry">
            <mxPoint x="190.72" y="610" as="sourcePoint" />
            <mxPoint x="230" y="500.15999999999997" as="targetPoint" />
          </mxGeometry>
        </mxCell>
      </root>
    </mxGraphModel>
  </diagram>
</mxfile>
